# xmcd
#
# Track frame offsets: 
#        150
#        22315
#        37578
#        59381
#        75294
#        92244
#        114174
#        132376
#        153926
#        177351
#        200077
#        223267
#        250945
#        270505
#        291035
#        308408
#        337292
#
# Disc length: 4670 seconds
#
# Revision: 0
# Processed by: cddbd v1.5.2PL0 Copyright (c) Steve Scherf et al.
# Submitted via: ExactAudioCopy v1.0b3
#
DISCID=f0123c11
DTITLE=Various Artist - Music For The Soul
DYEAR=2014
DGENRE=Blues, Soul
TTITLE0=Etta James - It's A Man's Man's World
TTITLE1=Artie Kaplan - Bensonhurst blues
TTITLE2=Koko Taylor - I'd Rather Go Blind
TTITLE3=Oscar Benton - I Belive In Love
TTITLE4=Janiva Magness - Make It Rain
TTITLE5=Ray Charles - If I Could
TTITLE6=Kentusky Thunder  - Love Is A Gift
TTITLE7=Eric Clapton - Second Nature
TTITLE8=Beth Hart - I'll Take Care Of You
TTITLE9=B.B. King  - The Thrill Is Gone (featuring Eric Clapton)
TTITLE10=Dawn Tyler Blues Project - Movin' On
TTITLE11=Gary Moore - Still Got The Blues
TTITLE12=Janis Joplin - Kozmic Blues
TTITLE13=Joe Cocker - I Put A Spell On You.
TTITLE14=Maggie Bell  -  If You Don't Know
TTITLE15=Otis Clay - Since I've Been Loving You
TTITLE16=Loleatta Holloway - I 've Been Loving You
EXTD=
EXTT0=
EXTT1=
EXTT2=
EXTT3=
EXTT4=
EXTT5=
EXTT6=
EXTT7=
EXTT8=
EXTT9=
EXTT10=
EXTT11=
EXTT12=
EXTT13=
EXTT14=
EXTT15=
EXTT16=
PLAYORDER=
